<svg preserveAspectRatio="none" width="100%" height="100%" overflow="visible" style="display: block;" viewBox="0 0 200 179.959" fill="none" xmlns="http://www.w3.org/2000/svg">
<g id="Group">
<path id="Vector" d="M40.5996 106.406C40.5996 105.345 35.5596 105.411 28.9996 105.411C22.4396 105.411 16.8656 106.937 16.8656 107.998C16.8656 109.059 22.1656 109.921 28.7346 109.921C35.3036 109.921 40.5996 107.467 40.5996 106.406Z" fill="var(--fill-0, #020658)"/>
<path id="Vector_2" d="M25.2116 84.3253C25.2116 84.2583 25.1446 84.1923 25.1446 84.1253C24.6806 82.6663 25.6096 82.4673 26.8026 82.9983C27.8636 83.4623 29.1236 85.1203 30.2506 84.8543C31.9086 84.4543 30.8506 82.5333 30.1186 81.7383C28.8586 80.2133 27.5986 78.8203 26.4716 77.2293C25.7416 76.1683 25.0786 74.7093 25.9406 73.7803C26.9406 72.7203 28.7256 73.5803 29.7206 74.5803C30.7146 75.6413 31.9746 76.9013 33.3676 76.5033C34.5606 74.7133 33.3676 72.3263 31.8426 70.8673C30.3176 69.3423 28.3946 68.0823 27.7306 66.0923C27.2666 64.7003 27.8636 62.7773 29.3226 62.5783C29.856 62.5911 30.3738 62.7617 30.8104 63.0685C31.247 63.3754 31.5828 63.8047 31.7756 64.3023C32.128 65.3154 32.619 66.2749 33.2346 67.1533C33.8976 67.9533 35.2906 68.4133 36.0866 67.6843C36.2891 67.4507 36.4361 67.1742 36.5164 66.8756C36.5968 66.577 36.6085 66.2641 36.5506 65.9603C36.2268 64.3445 35.3896 62.8765 34.1636 61.7753C32.949 60.6619 32.017 59.2753 31.4446 57.7303C30.9806 56.1393 31.6446 54.1503 33.1686 53.6853C33.9309 53.5402 34.7199 53.6841 35.3819 54.089C36.0439 54.4938 36.5314 55.1306 36.7496 55.8753C37.2136 57.2013 37.2796 59.1243 38.6726 59.3893C39.9986 59.6543 40.8606 58.0633 40.9266 56.7373C41.0596 54.3503 39.9986 52.0293 39.7336 49.6423C39.4686 47.2553 40.2636 44.3423 42.5186 43.6743C44.4416 43.0743 46.6296 44.4743 47.4256 46.3263C48.1107 48.2653 48.0634 50.3878 47.2926 52.2943C46.6296 54.2173 45.7016 56.0743 45.1046 57.9943C44.9996 58.2253 44.9509 58.4778 44.9624 58.7312C44.9739 58.9847 45.0452 59.2318 45.1706 59.4523C45.6346 60.0523 46.6956 59.7843 47.2266 59.1873C47.7576 58.5903 48.0266 57.7953 48.6186 57.3313C49.8786 56.3363 51.9346 57.3973 52.3326 58.9883C52.4615 59.7859 52.3688 60.6035 52.0646 61.3519C51.7603 62.1004 51.2563 62.7508 50.6076 63.2323C49.3267 64.1917 47.9501 65.0161 46.4996 65.6923C45.5056 66.2223 43.7816 67.1503 43.3166 68.2783C42.3886 70.5323 46.4996 68.2113 46.9636 67.8783C48.0916 67.0163 49.8816 66.3533 50.8096 67.4783C51.0095 67.7795 51.127 68.1278 51.1503 68.4886C51.1737 68.8493 51.102 69.2099 50.9426 69.5343C49.4836 73.4463 42.9856 73.4463 41.5266 77.3583C42.6536 77.8893 43.9796 77.1583 45.0406 76.4963C46.1016 75.8343 47.6276 75.3693 48.5556 76.2313C50.3456 77.9553 48.0916 80.1433 46.6326 81.1383C44.6436 82.4643 41.4606 82.1383 40.0676 84.0563C39.9391 84.182 39.8408 84.3351 39.7801 84.5043C39.7194 84.6735 39.6979 84.8542 39.7171 85.0328C39.7364 85.2115 39.7959 85.3835 39.8913 85.5358C39.9866 85.6882 40.1153 85.8169 40.2676 85.9123C40.7388 86.1548 41.2865 86.2025 41.7926 86.0453C43.3846 85.7803 45.2406 85.7133 45.1746 87.9683C45.1746 89.4933 43.9146 90.5543 42.7876 91.4163C40.3336 93.2733 35.0956 96.7213 31.8466 95.1963C28.3996 93.2753 26.2726 87.8393 25.2116 84.3253Z" fill="var(--fill-0, #D8FCDD)"/>
<path id="Vector_3" d="M32.0416 113.103C29.7866 100.103 33.5666 87.9723 37.2136 76.2353C40.1306 66.7533 43.1816 56.9353 43.0486 46.7273H43.7786C43.9786 57.0713 40.8606 66.8853 37.9426 76.4343C34.2996 88.1053 30.5826 100.107 32.8366 112.975L32.0416 113.103Z" fill="var(--fill-0, white)"/>
<path id="Vector_4" d="M12.5456 97.8523C12.4704 97.7698 12.3805 97.702 12.2806 97.6523C10.7556 96.2603 11.7506 95.3983 13.4076 95.1993C14.9336 94.9993 17.5196 96.0613 18.7126 94.9993C20.4366 93.4073 17.7846 91.9483 16.3916 91.4183C13.9386 90.4903 11.4846 89.7603 9.03157 88.6993C7.50657 87.9753 5.71557 86.7123 6.04757 85.0543C6.44757 83.1313 9.09757 82.9323 11.0206 83.3963C12.9436 83.8603 15.2646 84.5243 16.5906 83.0653C16.7236 80.2143 13.7396 78.2243 10.9546 77.4953C8.16957 76.7663 5.05457 76.6333 2.93057 74.7763C1.40557 73.4503 0.808572 70.7983 2.39957 69.6043C3.59357 68.7423 5.25057 69.2043 6.51057 69.9353C7.63188 70.8668 8.85539 71.668 10.1576 72.3233C11.5506 72.7873 13.4066 72.3893 13.8046 70.9963C13.8725 70.5742 13.8484 70.1423 13.7339 69.7303C13.6195 69.3184 13.4174 68.936 13.1416 68.6093C11.8156 66.8193 9.62757 66.0233 7.50557 65.3603C5.38357 64.6973 3.19557 64.1003 1.60557 62.5753C0.0155717 61.0503 -0.648428 58.2653 0.805572 56.6073C2.19857 55.0823 4.91757 55.3473 6.50557 56.7403C7.96457 58.0003 9.35757 60.1223 11.1476 59.5253C12.8716 58.9253 12.8056 56.4743 11.9476 54.8833C10.4216 52.0323 7.70357 50.0423 5.71357 47.4563C3.72357 44.8703 2.72957 40.9563 4.85157 38.5713C6.70857 36.5153 10.1566 36.6483 12.3446 38.3053C14.4467 40.1154 15.8534 42.6004 16.3236 45.3343C16.9236 47.9873 17.0536 50.7723 17.6496 53.4913C17.6756 53.8337 17.7861 54.1643 17.9713 54.4535C18.1565 54.7427 18.4105 54.9814 18.7106 55.1483C19.7056 55.5483 20.7006 54.4853 20.8986 53.4243C20.9363 52.3792 21.0472 51.3379 21.2306 50.3083C22.0306 48.3183 25.1426 48.1193 26.6676 49.6453C28.1926 51.1713 28.2596 53.6893 27.5966 55.7453C26.7818 57.7596 25.7358 59.6724 24.4796 61.4453C23.6846 62.7713 22.2916 65.0263 22.5566 66.6833C23.0206 69.9993 26.2036 64.4293 26.5356 63.6993C27.2646 61.9093 28.9226 59.9203 30.7126 60.6493C31.1552 60.8681 31.5342 61.1968 31.8133 61.6041C32.0925 62.0114 32.2623 62.4836 32.3066 62.9753C33.3016 68.5453 25.7416 72.9213 26.6696 78.4913C28.3276 78.3593 29.3226 76.5683 30.1846 75.1103C30.9846 73.6513 32.4386 71.9933 34.0306 72.3913C37.2796 73.1913 36.2186 77.2983 35.2246 79.4203C33.8316 82.2713 29.9246 84.0623 29.5246 87.3113C29.4663 87.5487 29.461 87.796 29.5093 88.0356C29.5575 88.2752 29.6581 88.5012 29.8037 88.6975C29.9494 88.8938 30.1366 89.0555 30.3519 89.1711C30.5673 89.2867 30.8055 89.3533 31.0496 89.3663C31.7501 89.3039 32.4068 88.9991 32.9066 88.5043C34.5636 87.1123 36.6856 85.7863 38.2066 88.3723C39.2066 90.1623 38.4726 92.2843 37.7426 94.0083C36.1516 97.8543 32.4426 105.48 27.5316 105.878C22.4926 106.141 16.2596 101.168 12.5456 97.8523Z" fill="var(--fill-0, #007C04)"/>
<path id="Vector_5" d="M29.7866 116.485C29.1547 112.884 28.2457 109.337 27.0676 105.875C26.2676 103.289 25.4106 100.636 24.8136 97.9843C24.0836 94.7353 23.2216 91.4193 22.3596 88.2363C21.4929 85.0718 20.6971 81.8883 19.9726 78.6883L19.7726 77.7603C17.0546 65.4933 14.2726 52.7603 7.57257 41.8863L8.37257 41.3563C15.1366 52.3633 17.9216 65.1613 20.6396 77.5613L20.8396 78.4903C21.5696 81.6723 22.4316 84.9223 23.2266 87.9723C24.0886 91.1553 24.9506 94.4723 25.6806 97.7863C26.2913 100.433 27.0437 103.045 27.9346 105.61C29.1735 109.104 30.1054 112.698 30.7196 116.353L29.7866 116.485Z" fill="var(--fill-0, white)"/>
<path id="Vector_6" d="M35.0916 154.083C37.4786 137.638 38.2746 122.917 40.5916 106.406C33.1597 109.936 24.6462 110.435 16.8526 107.799C19.6376 122.586 22.1526 139.893 24.9416 154.68C27.4656 157.2 32.4386 156.868 35.0916 154.083Z" fill="var(--fill-0, #160A9D)"/>
<path id="Vector_7" d="M82.4366 69.9353C90.8548 54.0647 104.726 41.7717 121.494 35.3223C131.905 31.3433 143.575 29.8223 154.251 33.0013C168.574 37.3113 179.317 49.7113 185.285 63.3713C191.253 77.0313 193.176 92.1493 194.966 107.003C196.425 118.674 197.817 130.278 199.276 141.948C200.271 150.237 201.066 159.587 195.762 166.085C192.512 170.064 187.605 172.185 182.699 173.711C170.033 177.69 156.639 178.353 143.443 178.883C111.747 180.077 80.0502 180.277 48.3536 179.483C38.6056 179.218 28.3276 178.754 20.2376 173.316C16.7236 170.929 13.6736 167.547 12.6786 163.37C11.8786 159.988 12.5456 156.407 13.6066 153.025C19.8406 133.464 38.6726 121.395 53.7246 107.337C67.1513 94.7616 78.1044 79.7828 86.0176 63.1753" fill="var(--fill-0, #14D29B)"/>
<path id="Vector_8" d="M199.21 141.948C197.751 130.278 196.358 118.674 194.9 107.003C193.109 92.1493 191.186 77.0973 185.218 63.3713C181.306 54.3533 175.272 45.8653 167.518 39.9633C169.231 42.5489 170.717 45.2777 171.961 48.1193C175.675 56.7403 177.399 66.0903 178.526 75.3073C179.266 81.3576 179.642 87.4469 179.653 93.5423C179.653 98.0513 180.582 105.342 176.802 108.661C176.081 109.294 175.239 109.773 174.327 110.069C173.414 110.366 172.452 110.473 171.497 110.385C172.78 111.194 173.723 112.444 174.149 113.899C178.659 125.106 171.895 138.434 166.391 148.182C161.683 156.603 154.991 163.765 146.034 167.743C141.989 169.6 112.348 179.414 114.139 167.279C114.003 168.712 113.666 170.118 113.139 171.456C112.078 173.844 110.354 174.507 107.901 174.706C93.556 175.999 79.1187 175.865 64.8006 174.306C60.0926 173.775 55.3186 173.179 50.6766 172.383C46.4986 171.72 41.7906 170.791 38.4086 168.139C36.8836 166.945 35.6906 165.288 36.0886 163.298C36.4196 161.375 38.6746 159.651 37.2156 157.662C35.9556 155.938 33.1706 155.54 31.3156 154.811C29.607 154.15 27.9259 153.42 26.2766 152.622C22.8946 151.031 18.9156 149.042 16.7276 145.859L16.6616 145.792C15.4418 148.111 14.4212 150.529 13.6106 153.02C12.5496 156.336 11.8866 159.92 12.6826 163.365C13.6776 167.542 16.6616 170.924 20.2416 173.311C28.3316 178.749 38.6096 179.279 48.3576 179.478C80.0536 180.274 111.75 180.074 143.447 178.878C156.709 178.348 170.104 177.685 182.703 173.706C187.609 172.181 192.516 170.059 195.766 166.08C201 159.587 200.271 150.237 199.21 141.948Z" fill="var(--fill-0, #008C6E)"/>
<path id="Vector_9" d="M74.8116 135.848C72.3265 136.977 70.2775 138.886 68.9756 141.285C68.1136 142.943 67.5836 144.8 66.2576 146.126C63.4726 148.845 58.4986 147.916 55.6476 150.502C60.0906 149.574 64.6656 150.902 68.8476 152.691C73.0296 154.48 77.0696 156.603 81.5786 157.399C86.8786 158.327 92.3216 157.199 97.7586 156.799C103.196 156.399 109.032 156.999 113.077 160.645C112.613 155.804 115.994 151.428 120.039 148.709C124.084 145.99 128.792 144.266 132.506 141.083C138.206 136.243 140.794 128.75 143.845 121.92C146.896 115.09 150.476 108.658 157.637 106.072C154.322 105.74 152.332 104.745 150.737 102.027C149.146 99.3743 148.814 96.1273 148.681 92.9423C148.404 87.5715 148.493 82.1881 148.947 76.8293C149.676 71.1923 151.665 64.8933 147.554 62.4393C140.194 58.0633 115.261 69.6673 111.216 77.6913C105.845 88.2343 105.716 100.767 100.739 111.443C95.6326 122.188 85.6196 130.941 74.8116 135.848Z" fill="var(--fill-0, #008C6E)"/>
<path id="Vector_10" d="M82.4366 69.9353C83.0366 68.7423 83.7636 67.6153 84.4266 66.4213C84.9566 65.3603 85.4876 64.2333 86.0176 63.1723L82.4366 69.9353Z" fill="var(--fill-0, #14D29B)"/>
<path id="Vector_11" d="M100.739 141.219C101.539 144.336 102.397 147.519 104.253 150.105C105.116 151.232 106.243 152.558 105.779 153.951C105.379 155.343 103.657 155.807 102.264 156.338C99.0806 157.531 96.6276 160.051 94.0416 162.238C91.3886 164.427 88.1416 166.283 84.7576 165.686C84.5748 165.666 84.3981 165.609 84.2384 165.518C84.0788 165.427 83.9396 165.304 83.8296 165.156C83.4296 164.493 84.2296 163.83 84.8296 163.432C88.1446 161.111 89.5376 157 91.9246 153.751C92.878 152.647 93.6807 151.42 94.3116 150.104C95.4386 147.385 94.4446 144.335 93.5116 141.55C95.1037 141.044 96.7514 140.732 98.4186 140.621C98.8256 140.557 99.2415 140.577 99.6406 140.68C100.04 140.783 100.413 140.966 100.739 141.219Z" fill="var(--fill-0, #160A9D)"/>
<path id="Vector_12" d="M84.4926 140.556C84.6256 143.739 84.7576 147.056 86.0176 149.972C86.6176 151.298 87.4106 152.823 86.6806 154.083C85.9506 155.343 84.1606 155.409 82.7026 155.608C79.3206 156.073 76.4026 158.062 73.3526 159.587C70.3026 161.112 66.7216 162.306 63.6046 160.979C63.4343 160.928 63.2761 160.843 63.1395 160.729C63.0029 160.615 62.8907 160.475 62.8096 160.316C62.6096 159.587 63.4726 159.123 64.2016 158.791C67.9146 157.266 70.1696 153.486 73.2196 150.834C74.3696 149.938 75.4152 148.915 76.3366 147.784C77.9946 145.397 77.7286 142.147 77.3976 139.296C79.0784 139.131 80.7741 139.198 82.4366 139.496C83.2325 139.573 83.9685 139.952 84.4926 140.556Z" fill="var(--fill-0, #160A9D)"/>
<path id="Vector_13" d="M109.094 10.3233C108.628 9.60501 108.327 8.79251 108.212 7.94411C108.097 7.09571 108.172 6.23246 108.431 5.4163C109.093 3.64012 110.393 2.17424 112.078 1.3043C114.404 0.0265009 117.127 -0.328374 119.704 0.310303C122.279 0.965857 124.522 2.54771 126.004 4.7533C127.529 7.0733 127.994 10.3893 126.204 12.5773C124.878 14.2353 122.557 14.7653 120.435 14.8323C116.919 14.8323 111.216 13.5053 109.094 10.3233Z" fill="var(--fill-0, black)"/>
<path id="Vector_14" d="M108.431 11.5823C110.752 9.46131 114.266 9.26231 117.25 10.1903C119 10.6773 120.568 11.6688 121.759 13.0413C122.348 13.7236 122.764 14.5379 122.972 15.4152C123.18 16.2926 123.173 17.2071 122.953 18.0813C122.708 18.946 122.186 19.7064 121.467 20.2455C120.748 20.7847 119.872 21.0727 118.974 21.0653C118.189 20.9768 117.427 20.7524 116.72 20.4023C114.117 19.1888 111.592 17.8155 109.16 16.2903C107.237 15.0973 106.442 13.3753 108.431 11.5823Z" fill="var(--fill-0, #98A6D7)"/>
<path id="Vector_15" d="M88.2726 33.0013C88.5304 30.0759 89.4162 27.2404 90.8694 24.6884C92.3227 22.1364 94.3092 19.9278 96.6936 18.2133C99.1397 16.4881 101.918 15.2906 104.852 14.697C107.786 14.1034 110.811 14.1267 113.736 14.7653C115.377 15.0824 116.949 15.6889 118.378 16.5563C120.61 18.087 122.414 20.1644 123.616 22.5903C125.08 25.2849 126.11 28.1941 126.666 31.2103C127.251 34.4982 127.274 37.8618 126.733 41.1573C126.599 42.4219 126.102 43.6208 125.302 44.6091C124.502 45.5975 123.433 46.3332 122.224 46.7273C119.398 47.7436 116.311 47.7669 113.471 46.7933C107.171 44.7383 100.471 43.2123 94.3706 40.6263C92.5806 39.8263 90.5246 39.2343 89.3316 37.6423C88.3817 36.2949 88.0012 34.6274 88.2726 33.0013Z" fill="var(--fill-0, black)"/>
<path id="Vector_16" d="M69.7716 47.9873C71.3636 44.4063 74.7446 42.2873 78.8566 40.2953C82.4241 38.6394 86.3307 37.8447 90.2616 37.9753C90.4596 38.9504 90.7482 39.9048 91.1236 40.8263C84.0946 44.6063 75.8056 47.9213 69.9706 53.4263C67.1196 50.5073 64.3996 47.6553 61.4166 44.8753C61.1607 42.6069 61.1386 40.3182 61.3506 38.0453C62.5033 38.1974 63.6116 38.5881 64.6049 39.1924C65.5982 39.7968 66.4546 40.6015 67.1196 41.5553C68.6762 43.3559 69.6067 45.6129 69.7716 47.9873Z" fill="var(--fill-0, #FDB849)"/>
<path id="Vector_17" d="M126.8 66.0233C123.01 59.5377 120.827 52.2395 120.434 44.7383C120.234 45.9973 119.042 46.6613 118.113 47.5893C115.988 49.437 113.727 51.1218 111.35 52.6293C113.248 58.5187 114.558 64.5816 115.262 70.7293C117.371 71.3612 119.628 71.2911 121.694 70.5293C123.881 69.7373 125.473 67.8803 126.8 66.0233Z" fill="var(--fill-0, black)"/>
<path id="Vector_18" d="M143.111 111.711C143.841 96.9903 144.239 88.1713 144.968 73.5113C145.168 69.4663 145.368 65.3553 144.168 61.5113C142.968 57.6673 140.123 54.0843 136.211 53.0903C131.569 51.9623 126.928 54.6813 122.811 57.1353C118.694 59.5893 113.594 61.8433 109.284 59.7873C107.228 58.7873 106.499 56.0743 104.443 55.0793C102.52 54.0793 100.067 54.8793 98.4746 56.3393C96.9593 57.9189 95.8253 59.8241 95.1596 61.9093C87.7996 80.5423 89.1256 90.2903 93.8336 109.785C96.8266 111.446 127.528 112.838 143.111 111.711Z" fill="var(--fill-0, #160A9D)"/>
<path id="Vector_19" d="M115.46 111.247C115.195 109.589 113.935 107.334 113.338 105.747C113.404 105.88 118.51 105.88 119.704 105.88C126.998 106.08 134.69 106.48 141.122 109.991C142.117 110.521 143.31 111.052 143.111 111.98C142.846 113.041 141.652 113.24 140.79 113.24C136.603 113.25 132.42 113.028 128.258 112.577C126.136 112.377 124.014 112.245 121.892 111.977C121.229 111.91 115.526 111.575 115.46 111.247Z" fill="var(--fill-0, black)"/>
<path id="Vector_20" d="M81.5086 79.8163C79.8506 74.5163 73.2196 71.7923 67.9146 73.3843C62.6096 74.9763 58.7646 79.8843 57.1726 85.2533C55.5806 90.6223 56.2446 97.2533 57.7036 102.626C62.4116 120.398 66.3236 130.543 72.6896 145.526C76.5356 147.582 84.2276 146.388 87.8086 144.2C86.8796 134.121 85.8186 129.811 84.7576 121.986C83.6966 114.161 84.4266 108.525 81.6416 101.098C83.6862 94.1449 83.6399 86.7436 81.5086 79.8163Z" fill="var(--fill-0, #D70A32)"/>
<path id="Vector_21" d="M96.0996 51.4353C96.8854 53.1311 98.0169 54.644 99.4213 55.8771C100.826 57.1103 102.472 58.0364 104.256 58.5963C108.102 59.6573 110.756 58.9963 114.137 57.1383C116.935 55.473 119.247 53.1019 120.841 50.2624C122.435 47.4229 123.256 44.2145 123.221 40.9583C122.889 35.2687 121.565 29.6808 119.309 24.4473C117.983 21.3963 114.336 20.1363 111.219 19.4073C105.45 18.0813 96.5636 18.2803 93.7126 24.5133C91.3916 29.4863 91.5246 36.3133 92.6516 41.4883C93.3387 44.9466 94.4989 48.2937 96.0996 51.4353Z" fill="var(--fill-0, #F7846C)"/>
<path id="Vector_22" d="M96.5616 25.8393C97.6279 25.0078 98.8976 24.477 100.238 24.3022C101.579 24.1274 102.943 24.3149 104.187 24.8453C105.092 24.4581 106.083 24.3155 107.06 24.4319C108.038 24.5483 108.968 24.9195 109.757 25.5083C111.179 26.4605 112.304 27.7932 113.006 29.3543C113.806 30.8793 114.333 32.6033 115.261 34.0623C115.637 34.7521 116.148 35.3596 116.763 35.8492C117.378 36.3388 118.085 36.7006 118.842 36.9133C120.234 37.2453 122.422 36.9133 123.285 35.7863C123.152 32.0063 121.759 28.6243 120.168 25.1763C119.479 23.4865 118.209 22.0989 116.587 21.2643C114.861 20.3006 113.039 19.5226 111.15 18.9433C105.381 17.6173 95.9646 17.8823 93.0496 24.1813C92.0727 26.8654 91.5135 29.6835 91.3916 32.5373C92.5136 29.8992 94.2937 27.593 96.5616 25.8393Z" fill="var(--fill-0, black)"/>
<path id="Vector_23" d="M101.336 39.8313C100.209 38.5713 98.1526 36.9133 96.4286 37.1123C94.7046 37.3113 93.1796 38.3053 92.5826 40.8253C92.5826 40.8253 93.8426 41.8203 96.7596 41.5553C98.4207 41.4404 100.012 40.841 101.336 39.8313ZM114.465 38.5043C113.338 37.2453 111.282 35.5873 109.558 35.7863C107.834 35.9853 106.309 36.9793 105.712 39.4993C105.712 39.4993 106.972 40.4943 109.89 40.2283C111.55 40.1141 113.141 39.5146 114.465 38.5043Z" fill="var(--fill-0, white)"/>
<path id="Vector_24" d="M96.9586 37.1123H96.4286C94.7046 37.3123 93.1796 38.3053 92.5826 40.8253C92.5826 40.8253 93.8426 41.8203 96.7596 41.5553C97.2741 41.5044 97.7842 41.4155 98.2856 41.2893C97.6754 39.956 97.2297 38.5533 96.9586 37.1123ZM110.155 35.7863H109.492C107.768 35.9863 106.243 36.9793 105.646 39.4993C105.646 39.4993 106.906 40.4943 109.824 40.2283C110.339 40.1839 110.849 40.0953 111.349 39.9633C110.76 38.6327 110.358 37.2271 110.155 35.7863Z" fill="var(--fill-0, black)"/>
<path id="Vector_25" d="M102.728 76.8983C94.985 75.7548 87.086 76.3207 79.5856 78.5563C78.3824 78.2868 77.1647 78.0865 75.9386 77.9563C75.0044 75.4729 73.5584 73.2137 71.6946 71.3253C71.2946 70.9253 71.0316 70.5963 70.6336 70.2643C67.8486 60.3843 63.5386 50.9643 59.1626 41.6843C59.5815 40.5851 60.2646 39.606 61.1516 38.8333C63.3003 39.4652 65.2372 40.6688 66.7554 42.3155C68.2735 43.9623 69.316 45.9904 69.7716 48.1833C72.2013 44.8453 75.6431 42.3802 79.5856 41.1543C83.4316 39.8283 87.5426 39.4963 91.6546 39.0983C93.9143 40.1226 95.7442 41.9058 96.8266 44.1383C101.734 54.0213 101.2 66.0233 102.728 76.8983Z" fill="var(--fill-0, white)"/>
<path id="Vector_26" d="M110.951 48.3853C110.293 49.5213 109.414 50.5134 108.365 51.3023C107.876 51.6858 107.311 51.9588 106.707 52.1023C106.082 52.2898 105.42 52.3125 104.784 52.1683C104.446 52.0471 104.132 51.8677 103.856 51.6383C103.43 51.3016 103.089 50.8701 102.861 50.3783C105.464 49.3808 108.182 48.7113 110.951 48.3853Z" fill="var(--fill-0, #DD4040)"/>
<path id="Vector_27" d="M103.922 47.9873C102.728 48.1193 101.336 48.4513 100.805 49.1803C100.474 49.5803 100.938 50.4403 101.605 50.6393C101.91 50.6973 102.222 50.7198 102.533 50.7063C104.408 50.4607 106.252 50.0158 108.033 49.3793C108.962 49.1143 111.083 48.5173 111.415 48.0533C109.359 48.5173 106.243 47.7883 103.922 47.9873Z" fill="var(--fill-0, black)"/>
<path id="Vector_28" d="M80.0496 85.5183C88.3386 80.0183 96.2296 77.6273 105.85 80.1473C102.932 65.6923 101.275 57.1383 98.0916 43.8763C88.4096 39.8313 75.0816 45.4673 70.5726 50.4403C69.5726 50.3083 68.4506 50.0403 67.4556 49.9103C66.9647 48.5066 66.2234 47.2035 65.2676 46.0643C64.2971 44.7512 63.1603 43.5696 61.8856 42.5493C60.5977 41.5303 59.0178 40.9497 57.3766 40.8923C62.1956 50.9552 66.0356 61.4582 68.8436 72.2563C71.5626 73.1853 73.0876 75.7713 74.2806 78.3563C75.2213 80.2714 75.9123 82.2993 76.3366 84.3903C77.5519 84.8362 78.7916 85.2128 80.0496 85.5183Z" fill="var(--fill-0, #FFD340)"/>
<path id="Vector_29" d="M73.8826 64.4323C73.4148 62.8816 73.0167 61.3107 72.6896 59.7243C72.4246 58.5303 72.0896 57.3373 71.8276 56.1433C71.2966 56.1433 70.8276 56.0773 70.3026 56.0773C70.6336 57.2043 70.9656 58.3313 71.2306 59.3923C71.6306 61.0503 72.0926 62.6413 72.5566 64.2993C72.9566 65.8243 73.3566 67.4163 73.8166 68.9413C74.2507 70.195 74.5851 71.481 74.8166 72.7873C75.3009 72.7324 75.7883 72.7104 76.2756 72.7213C75.9386 71.4613 74.2806 65.8913 73.8826 64.4323ZM92.6486 48.7163C89.7536 47.9123 86.7103 47.7989 83.7636 48.3853C81.991 48.7863 80.3057 49.5052 78.7896 50.5073C77.6788 51.1221 76.6534 51.8799 75.7396 52.7613C77.7286 58.1323 78.9886 63.7693 80.5136 69.2723C82.9107 67.2782 85.7529 65.8908 88.7996 65.2273C91.6253 64.5769 94.522 64.2873 97.4206 64.3653C95.7656 59.1933 94.1076 53.9553 92.6486 48.7163Z" fill="var(--fill-0, #008C6E)"/>
<path id="Vector_30" d="M75.3416 78.4903C74.4136 73.5163 67.5176 49.8433 67.4506 49.8433C66.9592 48.4398 66.2179 47.1368 65.2626 45.9973C64.2919 44.6847 63.155 43.5035 61.8806 42.4833C60.5931 41.4634 59.013 40.8824 57.3716 40.8253C62.1923 50.8883 66.034 61.3917 68.8436 72.1903C71.5626 73.1183 73.0876 75.7043 74.2806 78.2903C75.1689 80.1041 75.837 82.0177 76.2706 83.9903C75.9386 82.2033 75.6736 80.3463 75.3416 78.4903Z" fill="var(--fill-0, #FDB849)"/>
<path id="Vector_31" d="M124.677 57.3373C124.345 55.5463 123.948 53.8223 123.616 52.0373C122.201 53.9581 120.392 55.5549 118.311 56.7212C116.23 57.8874 113.924 58.5962 111.548 58.8003C111.506 59.9994 111.395 61.195 111.216 62.3813C111.451 62.8505 111.811 63.2466 112.255 63.5271C112.699 63.8076 113.211 63.9618 113.736 63.9733C114.8 63.9437 115.844 63.67 116.786 63.1733C119.77 61.9123 122.157 59.4583 124.677 57.3373Z" fill="var(--fill-0, #98A6D7)"/>
<path id="Vector_32" d="M113.6 34.7253C113.159 34.3123 112.636 33.998 112.064 33.8035C111.492 33.609 110.886 33.5387 110.285 33.5973C109.096 33.7302 107.9 33.797 106.704 33.7973C106.099 33.7968 105.507 33.6293 104.992 33.3135C104.477 32.9976 104.06 32.5456 103.786 32.0073C105.113 31.9413 106.439 31.4773 107.765 31.4073C108.986 31.2596 110.224 31.3496 111.412 31.6723C112.022 31.9297 112.55 32.3512 112.936 32.89C113.323 33.4289 113.552 34.0641 113.6 34.7253ZM99.8766 32.2753C99.7074 32.7963 99.4136 33.268 99.0206 33.6495C98.6276 34.031 98.1473 34.3107 97.6216 34.4643C96.6815 34.6627 95.7289 34.7964 94.7706 34.8643C94.2579 34.9233 93.7651 35.097 93.3288 35.3726C92.8926 35.6482 92.524 36.0186 92.2506 36.4563C92.184 35.8693 92.2784 35.2753 92.5238 34.738C92.7692 34.2007 93.1563 33.7403 93.6436 33.4063C94.5355 32.8398 95.571 32.5407 96.6276 32.5443C97.6216 32.4753 98.9486 32.8683 99.8766 32.2753Z" fill="var(--fill-0, black)"/>
<path id="Vector_33" d="M103.524 44.0753C103.779 42.0248 103.409 39.945 102.463 38.1083C102.637 39.2062 102.506 40.3308 102.085 41.3597C101.664 42.3885 100.969 43.2822 100.076 43.9433C101.188 44.3174 102.385 44.3633 103.524 44.0753Z" fill="var(--fill-0, #DD4040)"/>
<path id="Vector_34" d="M124.611 35.7193C123.916 35.7568 123.238 35.9417 122.62 36.2618C122.003 36.5818 121.461 37.0295 121.03 37.5753C120.567 38.3138 120.167 39.0903 119.836 39.8963C119.608 40.2986 119.304 40.6522 118.94 40.9367C118.576 41.2212 118.159 41.4311 117.714 41.5543C116.123 41.7543 115.195 40.0953 114.532 38.6363C112.476 34.3263 111.614 29.4193 108.832 25.4363C108.344 24.6041 107.599 23.9528 106.71 23.5803C106.265 23.4078 105.773 23.3998 105.323 23.5579C104.873 23.716 104.495 24.0296 104.256 24.4423C104.311 24.1236 104.428 23.8189 104.602 23.546C104.775 23.273 105.001 23.0372 105.266 22.8522C105.532 22.6671 105.831 22.5365 106.147 22.4678C106.463 22.3992 106.789 22.3939 107.108 22.4523C107.745 22.5945 108.349 22.8611 108.883 23.2367C109.418 23.6123 109.874 24.0896 110.224 24.6413C113.076 28.4203 113.341 33.4603 115.463 37.7043C115.794 38.4333 116.263 39.5603 117.121 39.4283C118.381 39.2283 119.044 37.9033 119.839 37.0413C121.03 35.7863 122.953 35.5873 124.611 35.7193Z" fill="var(--fill-0, black)"/>
<path id="Vector_35" d="M123.218 33.9953C123.569 33.6712 123.996 33.4406 124.459 33.3247C124.923 33.2088 125.408 33.2115 125.871 33.3323C126.35 33.5612 126.759 33.917 127.051 34.3612C127.343 34.8054 127.508 35.321 127.528 35.8523C127.86 38.1733 126.865 40.4943 125.605 42.4833C125.186 43.2091 124.648 43.8592 124.014 44.4063C123.822 44.5974 123.594 44.7488 123.344 44.8517C123.094 44.9547 122.825 45.0072 122.555 45.0063C121.693 44.9403 121.229 44.0113 120.964 43.2153C120.234 40.1623 120.7 35.9853 123.218 33.9953Z" fill="var(--fill-0, #F7846C)"/>
<path id="Vector_36" d="M125.672 39.8313C124.279 40.4313 123.218 42.0193 122.157 43.0803C122.376 41.4838 122.731 39.9088 123.218 38.3723C123.749 36.8473 124.213 35.4543 125.605 34.9243C124.956 35.7117 124.583 36.6899 124.544 37.7093C124.412 38.5753 124.279 40.1623 125.672 39.8313Z" fill="var(--fill-0, #DD4040)"/>
<path id="Vector_37" d="M89.4656 144.203C86.9881 146.009 84.0819 147.137 81.0347 147.474C77.9875 147.811 74.905 147.347 72.0926 146.126C71.266 144.454 70.5569 142.726 69.9706 140.954C73.2866 142.28 83.5646 142.015 87.7416 139.23C88.0736 140.887 88.9356 142.413 89.4656 144.203Z" fill="var(--fill-0, white)"/>
<path id="Vector_38" d="M139.464 111.446C140.186 119.204 138.667 127.005 135.088 133.925C133.098 137.97 130.38 141.882 126.401 143.871C123.284 145.276 119.862 145.869 116.455 145.595C114.294 145.648 112.154 145.17 110.221 144.203C108.365 143.142 106.375 141.484 106.442 139.296C106.863 141.301 106.953 143.362 106.707 145.396C101.781 147.521 96.3435 148.166 91.0576 147.252C90.3276 147.12 88.7366 142.876 88.4046 142.146C87.4766 140.29 86.6806 138.367 85.8856 136.51C84.2276 132.598 82.7026 128.619 81.1766 124.574C78.1266 116.551 74.6766 108.527 73.0206 100.106C71.2996 91.4203 70.8996 78.0253 81.1106 74.3753C86.6806 72.3863 92.6486 75.5693 96.6936 79.9453C104.917 88.8313 109.227 96.1253 115.526 107.928C123.417 108.395 133.1 108.197 139.464 111.446Z" fill="var(--fill-0, #FF465A)"/>
<path id="Vector_39" d="M125.539 138.898C122.982 138.898 120.469 138.236 118.245 136.975C116.354 135.802 114.692 134.297 113.338 132.532C110.155 128.62 108.038 123.978 106.176 119.27C104.386 114.828 102.264 111.578 100.739 107.07C98.8156 101.5 96.5616 95.5993 96.1636 87.7083C96.126 88.9131 95.879 90.1022 95.4336 91.2223C94.7706 92.3493 94.1076 92.4163 92.9806 91.0893C92.6486 90.6893 90.4606 86.4483 90.0626 85.7183C90.4626 86.9783 90.6626 88.3043 90.9246 89.5643C91.2015 90.5108 91.3138 91.4978 91.2566 92.4823C90.9906 94.1403 88.6706 92.6823 87.7416 92.3493C88.8696 93.4103 90.1286 94.8693 90.9246 95.7973C91.9263 96.9785 92.8563 98.2187 93.7096 99.5113C95.7422 102.902 97.4517 106.477 98.8156 110.187C100.398 114.216 101.814 118.309 103.06 122.454C105.248 129.881 106.972 142.48 106.84 140.954C107.621 142.387 108.825 143.545 110.288 144.269C112.223 145.229 114.361 145.707 116.521 145.662C119.928 145.929 123.348 145.336 126.467 143.938C129.33 142.369 131.714 140.054 133.367 137.238C130.902 138.332 128.235 138.898 125.539 138.898Z" fill="var(--fill-0, #D70A32)"/>
<path id="Vector_40" d="M108.1 145.463C106.997 146.413 105.675 147.074 104.254 147.386C99.7446 148.712 95.0366 149.707 90.5946 148.186C89.4136 146.576 88.4543 144.813 87.7426 142.947C94.8376 142.814 101.072 142.019 106.973 139.234C107.3 141.086 107.7 143.739 108.1 145.463Z" fill="var(--fill-0, white)"/>
<path id="Vector_41" d="M143.575 123.116C137.605 126.327 132.152 130.418 127.4 135.251C122.623 140.111 119.273 146.189 117.718 152.823C124.548 152.823 131.843 151.431 136.75 146.723C139.858 143.657 142.081 139.808 143.182 135.583C144.371 131.339 143.575 127.426 143.575 123.116Z" fill="var(--fill-0, #14D29B)"/>
<path id="Vector_42" d="M111.083 73.6493C109.108 71.3809 107.518 68.8049 106.375 66.0233C105.422 63.2889 103.607 60.9377 101.203 59.3233C100.45 58.7823 99.7403 58.1835 99.0806 57.5323C97.0256 55.8753 95.8976 51.3663 92.9806 52.4933C94.3726 54.7473 95.6326 57.1353 97.0256 59.3933C95.8428 58.366 94.755 57.2341 93.7756 56.0113C92.7156 54.8843 91.6546 53.2933 89.8636 53.9563C90.2636 54.6193 90.5936 55.4813 90.9906 56.1443C90.9146 56.0198 90.8141 55.912 90.6953 55.8274C90.5764 55.7428 90.4416 55.6831 90.2991 55.6521C90.1565 55.6211 90.0092 55.6193 89.8659 55.6468C89.7226 55.6743 89.5865 55.7306 89.4656 55.8123C90.1201 58.0443 91.3293 60.0741 92.9806 61.7123C91.8526 60.6513 90.0626 59.5243 88.7366 60.7123C91.2566 62.3043 92.9136 64.4923 94.7706 66.5483C96.1154 68.1264 97.6527 69.5296 99.3466 70.7253C100.166 71.2464 101.031 71.6903 101.933 72.0513C102.795 72.5163 103.723 72.8513 104.519 73.3783C105.098 73.8593 105.631 74.394 106.11 74.9753C106.91 75.9033 107.635 76.8983 108.365 77.8933C109.696 76.8011 110.647 75.3155 111.083 73.6493Z" fill="var(--fill-0, #F7846C)"/>
<path id="Vector_43" d="M93.9086 62.8403C93.792 62.6719 93.6579 62.5164 93.5086 62.3763C93.2436 62.1113 93.2436 62.0453 92.9786 61.7763C92.3179 61.0643 91.4658 60.5581 90.5246 60.3183C90.9964 60.6574 91.4399 61.0343 91.8506 61.4453C92.4856 62.2029 93.2775 62.8136 94.1716 63.2353C94.1056 63.1693 94.1056 63.1033 94.0396 63.0353C94.0383 63.0189 94.0309 63.0037 94.0189 62.9925C94.0068 62.9814 93.991 62.9753 93.9746 62.9753C93.9679 62.9243 93.9448 62.8769 93.9086 62.8403ZM93.0466 59.2603C92.2466 58.1993 90.9246 56.0773 90.9246 56.1433C90.756 55.9247 90.5247 55.7628 90.2616 55.6793C90.5752 56.4706 90.9294 57.2453 91.3226 58.0003C91.5977 58.5991 91.9548 59.1568 92.3836 59.6573C92.8923 60.1735 93.5015 60.5799 94.1736 60.8513L94.5736 61.0513C94.1076 60.5193 93.5776 59.9233 93.0466 59.2603Z" fill="var(--fill-0, #DD4040)"/>
<path id="Vector_44" d="M110.752 71.1293C115.394 75.0413 118.842 78.2243 122.157 84.2583C121.892 77.5583 123.417 70.8643 125.208 64.3653C126.136 61.0503 127.197 57.6653 129.319 55.0163C131.441 52.3673 134.955 50.4403 138.271 51.1033C141.255 51.7033 143.571 54.2203 144.703 57.0713C145.674 59.9725 146.057 63.0383 145.83 66.0893C145.498 77.6893 142.912 89.0333 139.53 100.107C138.469 103.488 137.209 107.136 134.225 109.059C131.307 110.915 127.395 110.65 124.278 109.059C121.241 107.326 118.706 104.836 116.918 101.831C111.082 93.0113 110.287 85.0543 104.118 75.9033C106.176 73.7813 107.9 72.0573 110.752 71.1293Z" fill="var(--fill-0, #020658)"/>
<path id="Vector_45" d="M106.906 79.6173C108.166 77.0313 110.752 75.3733 113.338 74.3173C113.593 74.1987 113.862 74.1097 114.138 74.0523C113.077 73.0523 111.949 72.1293 110.756 71.1343C107.905 72.0623 106.18 73.7863 104.256 76.0413C105.185 77.4343 105.981 78.8263 106.71 80.1523C106.773 79.9483 106.84 79.8163 106.906 79.6173Z" fill="var(--fill-0, #98A6D7)"/>
<path id="Vector_46" d="M123.55 87.1103C124.15 88.5023 124.677 89.9613 125.208 91.4203C125.672 92.6143 126.136 93.8733 126.6 95.0673C126.916 94.7404 127.25 94.4306 127.6 94.1393C126.338 90.1725 124.53 86.4006 122.229 82.9323V84.2593C122.091 84.1263 123.086 86.0493 123.55 87.1103Z" fill="var(--fill-0, black)"/>
<path id="Vector_47" d="M62.6106 55.8753C63.0497 54.545 63.5587 53.2389 64.1356 51.9623C64.4321 52.1549 64.6736 52.4212 64.8363 52.7351C64.999 53.0491 65.0773 53.4 65.0636 53.7533C64.9357 54.8046 64.7352 55.8457 64.4636 56.8693C65.2636 55.8753 65.9886 54.8803 66.7186 53.8853C67.0571 54.1242 67.3062 54.4693 67.4263 54.8659C67.5464 55.2624 67.5307 55.6877 67.3816 56.0743C67.531 56.2041 67.6457 56.3691 67.7156 56.5543C67.7854 56.7395 67.8081 56.9392 67.7816 57.1353C67.7732 57.5338 67.6586 57.9229 67.4496 58.2623C67.1098 58.988 66.6628 59.6585 66.1236 60.2513C66.9236 59.7213 67.5826 59.3233 68.3786 58.7923C68.4781 59.2152 68.4557 59.6577 68.3141 60.0685C68.1726 60.4792 67.9175 60.8415 67.5786 61.1133C67.0476 61.6443 66.5786 62.2403 66.0536 62.8373C66.4536 64.0973 66.7166 65.0923 67.1146 66.5513C66.6506 66.8823 66.1856 66.6173 65.7216 66.2853C65.2814 65.9469 64.9194 65.5175 64.6606 65.0263C63.9955 64.2486 63.6206 63.2644 63.5996 62.2413C63.5996 62.0413 63.6666 61.8413 63.5996 61.7103C63.5336 61.4453 63.2686 61.2463 63.1996 60.9813C63.1927 60.6675 63.1484 60.3556 63.0676 60.0523C62.9346 59.8523 62.7356 59.7213 62.6676 59.4523C62.5996 59.1833 62.7336 58.8523 62.6676 58.5243C62.585 58.2695 62.4736 58.0249 62.3356 57.7953C62.2258 57.1423 62.3219 56.4713 62.6106 55.8753Z" fill="var(--fill-0, #DD4040)"/>
<g id="Vector_48">
</g>
</g>
</svg>
